HIERARCHY
ROOT root
{
	OFFSET 0.000000 0.000000 0.000000
	CHANNELS 6 Xposition Yposition Zposition Zrotation Yrotation Xrotation
	JOINT lhip
	{
		OFFSET 0.058581 -0.082280 -0.017664
		CHANNELS 3 Zrotation Yrotation Xrotation
		JOINT lknee
		{
			OFFSET 0.043451 -0.386469 0.008037
			CHANNELS 3 Zrotation Yrotation Xrotation
			JOINT lankle
			{
				OFFSET -0.014790 -0.426874 -0.037428
				CHANNELS 3 Zrotation Yrotation Xrotation
				JOINT ltoe
				{
					OFFSET 0.041054 -0.060286 0.122042
					CHANNELS 3 Zrotation Yrotation Xrotation
					End Site
					{
						OFFSET 0.000000 0.000000 0.000000
					}
				}
			}
		}
	}
	JOINT rhip
	{
		OFFSET -0.060310 -0.090513 -0.013543
		CHANNELS 3 Zrotation Yrotation Xrotation
		JOINT rknee
		{
			OFFSET -0.043257 -0.383688 -0.004843
			CHANNELS 3 Zrotation Yrotation Xrotation
			JOINT rankle
			{
				OFFSET 0.019056 -0.420046 -0.034562
				CHANNELS 3 Zrotation Yrotation Xrotation
				JOINT rtoe
				{
					OFFSET -0.034840 -0.062106 0.130323
					CHANNELS 3 Zrotation Yrotation Xrotation
					End Site
					{
						OFFSET 0.000000 0.000000 0.000000
					}
				}
			}
		}
	}
	JOINT lowerback
	{
		OFFSET 0.004439 0.124404 -0.038385
		CHANNELS 3 Zrotation Yrotation Xrotation
		JOINT upperback
		{
			OFFSET 0.004488 0.137956 0.026820
			CHANNELS 3 Zrotation Yrotation Xrotation
			JOINT chest
			{
				OFFSET -0.002265 0.056032 0.002855
				CHANNELS 3 Zrotation Yrotation Xrotation
				JOINT lowerneck
				{
					OFFSET -0.013390 0.211636 -0.033468
					CHANNELS 3 Zrotation Yrotation Xrotation
					JOINT upperneck
					{
						OFFSET 0.010113 0.088937 0.050410
						CHANNELS 3 Zrotation Yrotation Xrotation
						End Site
						{
							OFFSET 0.000000 0.000000 0.000000
						}
					}
				}
				JOINT lclavicle
				{
					OFFSET 0.071702 0.114000 -0.018898
					CHANNELS 3 Zrotation Yrotation Xrotation
					JOINT lshoulder
					{
						OFFSET 0.122921 0.045205 -0.019046
						CHANNELS 3 Zrotation Yrotation Xrotation
						JOINT lelbow
						{
							OFFSET 0.255332 -0.015649 -0.022946
							CHANNELS 3 Zrotation Yrotation Xrotation
							JOINT lwrist
							{
								OFFSET 0.265709 0.012698 -0.007375
								CHANNELS 3 Zrotation Yrotation Xrotation
								End Site
								{
									OFFSET 0.000000 0.000000 0.000000
								}
							}
						}
					}
				}
				JOINT rclavicle
				{
					OFFSET -0.082954 0.112472 -0.023707
					CHANNELS 3 Zrotation Yrotation Xrotation
					JOINT rshoulder
					{
						OFFSET -0.113228 0.046853 -0.008472
						CHANNELS 3 Zrotation Yrotation Xrotation
						JOINT relbow
						{
							OFFSET -0.260127 -0.014369 -0.031269
							CHANNELS 3 Zrotation Yrotation Xrotation
							JOINT rwrist
							{
								OFFSET -0.269108 0.006794 -0.006027
								CHANNELS 3 Zrotation Yrotation Xrotation
								End Site
								{
									OFFSET 0.000000 0.000000 0.000000
								}
							}
						}
					}
				}
			}
		}
	}
}
MOTION
Frames: 18
Frame Time: 0.033333
-0.390843 0.934601 0.994361 32.039481 0.303635 86.247237 -1.895755 1.116768 3.479649 -1.229252 -5.910890 5.333995 4.814285 12.731444 -13.219317 0.000000 -0.000000 0.000000 4.633672 2.193203 -2.279899 0.520620 4.973283 15.528180 0.898339 -3.882273 -14.070997 0.000000 -0.000000 0.000000 1.172724 -0.277526 9.419811 1.790098 0.313140 -2.588208 -0.122375 -0.345750 3.288097 2.273278 4.716741 1.620916 -3.899154 -0.921977 15.647691 -29.107778 9.029384 -0.001676 -58.564254 -5.791825 8.625824 13.611546 -28.142917 1.461473 -3.857215 -2.249185 -5.768085 29.062721 -1.468649 0.818212 56.470993 6.778699 14.885828 -12.842844 19.818252 -7.326131 6.043047 1.228662 -7.771651 
-0.390206 0.935352 0.994052 31.867610 0.317886 86.376000 -2.036875 0.742970 3.203467 -1.180863 -5.759181 5.606902 4.889201 13.113178 -13.300719 0.000000 -0.000000 0.000000 4.551780 2.608553 -2.404188 0.648573 5.071859 15.508116 1.068108 -4.149453 -14.064330 0.000000 -0.000000 0.000000 0.993611 -0.459562 9.241155 1.859105 0.371449 -2.545662 -0.046960 -0.145002 3.306754 2.315818 4.812237 1.511812 -4.072046 -0.857047 15.808247 -29.036823 9.072697 0.021273 -58.626802 -5.830588 8.867873 13.596630 -28.153113 1.669340 -3.985093 -2.331627 -5.894405 28.863122 -1.494848 0.897788 56.679536 6.854065 15.113104 -13.099390 19.723295 -7.355628 6.373912 1.165296 -7.910801 
-0.389473 0.936050 0.993942 31.614178 0.359759 86.352485 -2.104379 0.634500 3.169203 -1.156583 -5.520896 5.726804 4.983099 13.291902 -13.375333 0.000000 -0.000000 0.000000 4.480022 2.611517 -2.448116 0.752401 5.204284 15.593304 1.121080 -4.062311 -14.073278 0.000000 -0.000000 0.000000 1.125578 -0.321695 9.141312 1.789180 0.505370 -2.412589 -0.119457 -0.217256 3.361900 2.226228 4.795035 1.530571 -4.041337 -0.831487 15.675158 -29.061507 8.916847 0.124055 -58.596939 -5.940229 8.899087 13.653455 -28.131359 1.709692 -4.104473 -2.315834 -5.861180 28.845457 -1.411852 0.821244 56.680316 6.905683 15.103578 -13.075665 19.551850 -7.306461 6.403170 1.106779 -7.854360 
-0.388793 0.936638 0.993927 31.454453 0.451953 86.259913 -2.026003 0.707316 3.068522 -1.309806 -5.469760 6.143158 5.149645 13.334286 -13.591159 0.000000 -0.000000 0.000000 4.531470 2.609374 -2.445366 0.771484 5.213964 15.736283 1.142896 -4.042265 -14.126605 0.000000 -0.000000 0.000000 0.971075 -0.370313 9.365785 1.811684 0.493696 -2.541932 -0.060745 -0.127546 3.281029 2.306043 4.703703 1.534518 -3.955926 -0.807707 15.775127 -28.972230 8.965410 0.219813 -58.649576 -5.904811 8.868924 13.580239 -28.271686 1.752770 -4.064606 -2.355215 -5.892183 28.850214 -1.322451 0.803070 56.569091 6.804936 15.125349 -12.907428 19.650486 -7.222117 6.242939 1.118636 -7.752497 
-0.387776 0.937024 0.993979 31.432926 0.509555 86.288127 -2.059537 0.682985 3.021399 -1.298768 -5.510048 6.209714 5.297683 13.474229 -13.676939 0.000000 -0.000000 0.000000 4.486197 2.595011 -2.490415 0.833852 5.204645 15.778929 1.178885 -3.967970 -14.196491 0.000000 -0.000000 0.000000 0.989843 -0.341486 9.436944 1.829730 0.467882 -2.719044 -0.084398 -0.118049 3.242725 2.356421 4.811661 1.666333 -3.938614 -0.748901 15.996541 -28.997626 9.102783 0.180105 -58.660340 -5.849989 8.881779 13.425566 -28.304226 1.816682 -3.947362 -2.418560 -5.829935 28.867278 -1.473265 0.769287 56.504108 6.796101 15.124615 -12.860236 19.682840 -7.212240 6.182436 1.152740 -7.745815 
-0.386770 0.937294 0.993801 31.340946 0.605778 86.298284 -1.997382 0.794261 2.941882 -1.352987 -5.499452 6.374936 5.298969 13.419163 -13.763802 0.000000 -0.000000 0.000000 4.565610 2.646681 -2.560420 0.782121 5.211834 15.911570 1.174714 -3.961762 -14.273283 0.000000 -0.000000 0.000000 0.938568 -0.392597 9.403781 1.848525 0.483749 -2.715171 -0.055183 -0.055944 3.290185 2.416064 4.872134 1.690078 -3.972147 -0.700599 16.002992 -29.012157 9.190753 0.082753 -58.733131 -5.789662 8.907210 13.474301 -28.378970 2.006390 -4.047046 -2.553209 -5.774308 28.806388 -1.451920 0.807287 56.556713 6.925724 15.110956 -13.003628 19.614154 -7.158924 6.245995 1.245509 -7.687256 
-0.385352 0.938132 0.993789 31.268110 0.577189 86.251886 -2.138410 0.761552 2.962574 -1.380006 -5.416036 6.433515 5.391764 13.519756 -13.801322 0.000000 -0.000000 0.000000 4.465147 2.726497 -2.611788 0.760900 5.214884 16.096208 1.239625 -4.040771 -14.319078 0.000000 -0.000000 0.000000 0.913655 -0.330318 9.417568 1.790266 0.583098 -2.648967 -0.065585 -0.091340 3.299546 2.422166 4.758623 1.811335 -3.911766 -0.720665 16.020615 -28.964142 8.957694 0.248321 -58.725323 -5.850785 8.890824 13.383022 -28.324515 1.980027 -4.230371 -2.488650 -5.934992 28.773520 -1.408508 0.820414 56.586499 6.998800 15.054656 -13.142176 19.693681 -7.263928 6.209258 1.161384 -7.757810 
-0.383662 0.938673 0.993731 31.174858 0.570598 86.173809 -2.320455 0.871608 3.083882 -1.269452 -5.430841 6.432979 5.423317 13.545181 -13.873567 0.000000 -0.000000 0.000000 4.338371 2.724840 -2.578334 0.780752 5.220788 16.239418 1.298070 -3.969887 -14.423631 0.000000 -0.000000 0.000000 0.911924 -0.319335 9.530605 1.708337 0.653476 -2.631037 -0.103862 -0.093538 3.340353 2.530276 4.768973 1.806932 -4.004298 -0.507851 15.972287 -28.902698 8.961583 0.190071 -58.776068 -5.834394 8.848962 13.269369 -28.310141 1.962463 -4.022709 -2.343132 -5.842745 28.757845 -1.361873 0.743216 56.420914 6.964430 15.069280 -12.907880 19.957639 -7.231948 6.188624 1.244561 -7.732483 
-0.382276 0.939076 0.993552 31.119355 0.647529 86.255395 -2.327403 0.886314 3.055191 -1.291772 -5.461075 6.371692 5.468521 13.558814 -13.850285 0.000000 -0.000000 0.000000 4.275345 2.735348 -2.734487 0.863967 5.138383 16.377452 1.261163 -3.864529 -14.457733 0.000000 -0.000000 0.000000 0.880545 -0.246727 9.549811 1.730339 0.734868 -2.653263 -0.071257 -0.083931 3.302116 2.438771 4.756664 1.967857 -3.921204 -0.680304 15.977920 -28.846203 8.931369 0.258390 -58.889661 -5.793383 8.918690 13.320764 -28.375186 1.985841 -3.992748 -2.453708 -5.902760 28.674834 -1.364449 0.787091 56.506064 7.029562 15.018297 -13.128665 19.978206 -7.182721 6.181338 1.285106 -7.687777 
-0.379555 0.939932 0.993476 31.254530 0.743282 86.263861 -2.403851 0.724575 3.076602 -1.325812 -5.533791 6.398414 5.576031 13.709772 -13.870846 0.000000 -0.000000 0.000000 4.227713 2.818179 -2.715380 0.798067 4.991374 16.461269 1.275310 -3.882520 -14.592647 0.000000 -0.000000 0.000000 1.018562 -0.342898 9.713384 1.707413 0.671885 -2.739822 -0.155869 -0.023217 3.286579 2.495795 4.697071 1.998875 -3.902450 -0.668223 15.995778 -28.925082 8.972935 0.213476 -58.771487 -5.663632 8.937739 13.202247 -28.513871 1.998484 -4.255961 -2.392763 -5.797984 28.646195 -1.212709 0.838437 56.467088 6.995886 14.992869 -13.230916 20.070163 -7.392737 6.258221 1.322764 -7.672469 
-0.377566 0.940652 0.993263 31.111240 0.890356 86.469472 -2.477239 0.694627 2.848763 -1.202334 -5.559965 6.459306 5.734001 13.895032 -13.978191 0.000000 -0.000000 0.000000 4.232584 2.584542 -3.118478 0.863469 5.254032 16.788321 1.328997 -3.790398 -14.685514 0.000000 -0.000000 0.000000 1.040437 -0.265367 9.710471 1.779131 0.744428 -2.940975 -0.065316 0.049254 3.285101 2.475740 4.776600 2.220983 -3.939188 -0.591537 16.106561 -28.947278 9.084842 0.124863 -58.892248 -5.562347 8.936224 13.184876 -28.473163 1.974034 -4.028290 -2.346226 -5.898786 28.415270 -1.210051 1.040319 56.402085 7.020759 15.016798 -13.153689 20.253063 -7.339383 6.063557 1.255240 -7.692426 
-0.375260 0.940947 0.993061 31.199281 0.935505 86.366929 -2.516588 0.735614 2.898251 -1.335236 -5.603366 6.716530 5.723832 13.787987 -14.240830 0.000000 -0.000000 0.000000 4.172030 2.581903 -3.072166 0.838207 5.185959 17.044962 1.381773 -3.847236 -14.928965 0.000000 -0.000000 0.000000 1.144595 -0.176221 9.724908 1.722597 0.816541 -2.692347 -0.150559 -0.004433 3.366464 2.617431 4.570045 2.213461 -3.868186 -0.765213 16.018364 -28.927834 8.980020 0.166704 -58.857847 -5.702250 8.875625 13.290214 -28.485640 1.940049 -4.118439 -2.330508 -5.860408 28.553152 -1.134699 0.845372 56.309482 7.007358 14.930594 -13.212042 20.263699 -7.442724 6.178658 1.242028 -7.629616 
-0.372842 0.941712 0.992767 31.276242 0.855332 86.284362 -2.690517 0.751083 2.985297 -1.491501 -5.692185 6.772737 5.841647 13.757498 -14.391249 0.000000 -0.000000 0.000000 4.032150 2.960061 -3.435354 0.791995 4.850372 18.037858 1.469632 -4.130210 -15.351086 0.000000 -0.000000 0.000000 0.911215 -0.268801 10.124376 1.772361 0.967995 -2.835483 -0.095530 0.045498 3.384071 2.719639 4.497979 2.288260 -3.904534 -0.880123 15.996925 -28.927172 8.994817 0.171572 -58.778056 -5.667688 8.938722 13.119095 -28.588769 2.085749 -3.938309 -2.330276 -5.857907 28.648121 -1.077363 0.762913 56.189493 7.024621 14.962691 -13.284173 20.291359 -7.592044 6.058813 1.229800 -7.569976 
-0.369796 0.942136 0.991975 31.042955 0.812404 86.044155 -2.956278 0.987057 3.546560 -1.423750 -6.003045 6.374916 6.007504 14.061258 -14.470180 0.000000 -0.000000 0.000000 3.701261 3.182038 -3.945449 1.126047 4.361261 19.529709 1.561606 -4.099776 -15.634582 0.000000 -0.000000 0.000000 0.869374 -0.421362 10.434681 1.714712 1.203612 -2.600665 -0.095691 0.249670 3.410069 2.842724 4.555711 2.248253 -3.941774 -0.967372 16.047414 -28.998377 8.844250 0.087994 -58.762964 -5.648189 8.866716 13.340883 -28.617294 1.711743 -3.774688 -2.265199 -5.931863 28.646911 -0.905545 0.886472 56.175413 7.134094 14.868793 -13.538022 20.564834 -8.008063 6.064893 1.311110 -7.643270 
-0.366894 0.942849 0.990742 31.003030 0.495059 85.935912 -3.487901 0.985605 3.856464 -1.436736 -6.207554 6.131650 6.298168 14.165323 -14.588187 0.000000 -0.000000 0.000000 3.458627 3.565858 -5.245768 0.887042 3.911895 22.307928 1.760655 -4.406579 -16.418057 0.000000 -0.000000 0.000000 0.436110 -0.636111 10.905509 1.680751 1.324662 -2.770820 -0.122893 0.319598 3.565830 3.118622 4.622448 2.133270 -3.990662 -1.037184 16.081706 -28.824468 8.904760 0.066295 -58.816475 -5.670664 8.840324 13.377747 -28.621691 1.479370 -3.849831 -2.223776 -6.099287 28.770097 -0.699884 0.878464 56.085597 7.224464 14.913761 -13.558665 20.830644 -8.391670 6.068289 1.351990 -7.720315 
-0.364289 0.943456 0.989656 31.155321 0.221172 85.689034 -3.712893 1.164039 4.123709 -1.807385 -6.614367 6.173045 6.486571 14.133687 -14.630409 0.000000 -0.000000 0.000000 3.082030 3.728073 -6.625880 0.921942 3.231008 25.505584 1.957268 -4.473200 -16.652203 0.000000 -0.000000 0.000000 0.063618 -0.835161 11.581337 1.690546 1.444428 -2.836408 -0.120579 0.230114 3.614528 3.212421 4.695861 2.119647 -4.110665 -1.185710 16.227391 -28.879151 8.742843 0.021645 -58.615972 -5.701042 8.747240 13.344481 -28.527969 1.382149 -3.766733 -2.158730 -6.273063 29.028062 -0.721656 0.710832 55.956862 7.356211 14.932130 -13.742387 21.203195 -8.604703 6.010380 1.372799 -7.581491 
-0.361626 0.943918 0.988666 31.262096 0.052434 85.524612 -4.077556 1.199190 4.436342 -1.797640 -6.849063 6.002068 6.771473 14.438873 -14.742359 0.000000 -0.000000 0.000000 2.695228 4.073231 -8.612356 1.263715 2.612816 29.528383 2.504234 -4.820637 -16.305634 0.000000 -0.000000 0.000000 -0.071205 -1.258199 12.207907 1.616113 1.624969 -2.942784 -0.346822 0.107127 3.704537 3.520361 4.778241 2.031768 -4.310800 -1.229035 16.602088 -28.888163 8.812264 -0.149814 -58.399493 -5.694126 8.741961 13.401697 -28.398500 1.128966 -3.475673 -2.170488 -6.312577 29.347512 -0.633743 0.584597 55.702563 7.389971 15.175579 -13.661588 21.629767 -9.037758 5.780080 1.419747 -7.616008 
-0.358924 0.943924 0.988168 31.296204 -0.009667 85.339506 -4.216022 1.372630 4.618145 -2.035420 -7.311577 6.254547 7.187189 14.786877 -14.943148 0.000000 -0.000000 0.000000 2.268924 4.360988 -11.094246 1.559836 1.409972 34.236378 3.499615 -5.083842 -15.230995 0.000000 -0.000000 0.000000 -0.271180 -1.814833 13.127505 1.691753 1.891418 -3.352442 -0.363612 0.053556 3.767754 3.546612 4.807300 2.098763 -4.480569 -1.258743 16.779498 -29.093682 9.047063 -0.344540 -58.172767 -5.635436 8.613593 13.337543 -28.353744 1.015079 -3.574296 -2.031697 -6.107071 29.399784 -0.818113 0.389440 55.713264 7.479175 15.362858 -13.872938 21.872224 -9.284091 5.748317 1.564073 -7.245367 
